<?xml version="1.0" standalone="no"?><!DOCTYPE svg PUBLIC "-//W3C//DTD SVG 1.1//EN" "http://www.w3.org/Graphics/SVG/1.1/DTD/svg11.dtd"><svg t="1527422246480" class="icon" style="" viewBox="0 0 1024 1024" version="1.1" xmlns="http://www.w3.org/2000/svg" p-id="9586" xmlns:xlink="http://www.w3.org/1999/xlink" width="200" height="200"><defs><style type="text/css">@font-face { font-family: TrolaText; src: url("chrome-extension://hjpahjhcglfdopbholajmhpamgblhjhg/fonts/trola/2F02A7_0_0.eot") format("embedded-opentype"), url("chrome-extension://hjpahjhcglfdopbholajmhpamgblhjhg/fonts/trola/2F02A7_0_0.woff") format("woff"), url("chrome-extension://hjpahjhcglfdopbholajmhpamgblhjhg/fonts/trola/2F02A7_0_0.ttf") format("truetype"), url("chrome-extension://hjpahjhcglfdopbholajmhpamgblhjhg/fonts/trola/2F02A7_0_0.svg") format("svg"); font-weight: bold; font-style: italic; }
@font-face { font-family: TrolaText; src: url("chrome-extension://hjpahjhcglfdopbholajmhpamgblhjhg/fonts/trola/2F02A7_1_0.eot") format("embedded-opentype"), url("chrome-extension://hjpahjhcglfdopbholajmhpamgblhjhg/fonts/trola/2F02A7_1_0.woff") format("woff"), url("chrome-extension://hjpahjhcglfdopbholajmhpamgblhjhg/fonts/trola/2F02A7_1_0.ttf") format("truetype"), url("chrome-extension://hjpahjhcglfdopbholajmhpamgblhjhg/fonts/trola/2F02A7_1_0.svg") format("svg"); font-weight: bold; font-style: normal; }
@font-face { font-family: TrolaText; src: url("chrome-extension://hjpahjhcglfdopbholajmhpamgblhjhg/fonts/trola/2F02A7_2_0.eot") format("embedded-opentype"), url("chrome-extension://hjpahjhcglfdopbholajmhpamgblhjhg/fonts/trola/2F02A7_2_0.woff") format("woff"), url("chrome-extension://hjpahjhcglfdopbholajmhpamgblhjhg/fonts/trola/2F02A7_2_0.ttf") format("truetype"), url("chrome-extension://hjpahjhcglfdopbholajmhpamgblhjhg/fonts/trola/2F02A7_2_0.svg") format("svg"); font-weight: normal; font-style: italic; }
@font-face { font-family: TrolaText; src: url("chrome-extension://hjpahjhcglfdopbholajmhpamgblhjhg/fonts/trola/2F02A7_3_0.eot") format("embedded-opentype"), url("chrome-extension://hjpahjhcglfdopbholajmhpamgblhjhg/fonts/trola/2F02A7_3_0.woff") format("woff"), url("chrome-extension://hjpahjhcglfdopbholajmhpamgblhjhg/fonts/trola/2F02A7_3_0.ttf") format("truetype"), url("chrome-extension://hjpahjhcglfdopbholajmhpamgblhjhg/fonts/trola/2F02A7_3_0.svg") format("svg"); font-weight: normal; font-style: normal; }
@font-face { font-family: highlyfont; src: url("chrome-extension://hjpahjhcglfdopbholajmhpamgblhjhg/fonts/highlyfont.eot") format("embedded-opentype"), url("chrome-extension://hjpahjhcglfdopbholajmhpamgblhjhg/fonts/highlyfont.woff") format("woff"), url("chrome-extension://hjpahjhcglfdopbholajmhpamgblhjhg/fonts/highlyfont.ttf") format("truetype"), url("chrome-extension://hjpahjhcglfdopbholajmhpamgblhjhg/fonts/highlyfont.svg") format("svg"); font-weight: normal; font-style: normal; }
</style></defs><path d="M194.372408 193.049784C262.357801 125.048017 350.062306 80.932264 446.957123 67.019393c118.42518-17.027815 236.436944 13.169951 332.212264 84.892459 95.80295 71.770604 157.926846 176.541809 174.950568 294.968012 35.120892 244.644883-135.340431 472.128921-379.829771 507.274372-102.519931 14.703887-207.644177-6.78452-296.022017-60.441581-15.10093-9.188266-19.914562-28.883841-10.748808-43.982724 9.258874-14.968923 28.866445-19.909445 43.983747-10.723226 75.691913 46.000684 165.803233 64.377216 253.705236 51.77827 209.517851-30.066783 355.602997-225.082338 325.535191-434.80178-14.569834-101.534488-67.828828-191.294814-149.956314-252.785284C658.688385 141.68186 557.551964 115.858728 456.035896 130.473587c-209.739908 30.05655-355.780029 225.116107-325.648778 434.743452 7.900947 54.882981 26.935466 106.173135 56.719816 152.387689 9.541307 14.924921 5.185093 34.793434-9.586332 44.248783-14.855336 9.581216-34.682917 5.29254-44.243667-9.541307-34.749432-54.092989-57.003272-113.918539-66.261123-177.98774C50.015625 455.894168 80.166319 337.818959 151.985018 242.019079 165.028079 224.561475 179.20394 208.191646 194.372408 193.049784L194.372408 193.049784 194.372408 193.049784 194.372408 193.049784zM194.372408 193.049784" fill="#8a8a8a" p-id="9587"></path><path d="M338.313727 696.201256 338.313727 354.833471l-53.55166 0c-13.385868 0-20.081361-7.42818-20.081361-22.312168 0-11.885701 6.695492-18.580171 20.081361-20.080338l89.246627 0c10.392698 0 15.622816 4.462638 15.622816 13.385868l0 370.374422c-1.500167 14.886035-10.425444 22.313192-26.77583 22.313192C346.468454 718.514447 338.313727 711.087291 338.313727 696.201256L338.313727 696.201256zM338.313727 696.201256" fill="#8a8a8a" p-id="9588"></path><path d="M574.817186 354.833471l-15.616676 111.558795c14.85022-7.426133 32.698726-11.890818 53.54552-13.389962 62.473867 7.461949 97.4034 49.087998 104.866373 124.945687-4.463662 92.245937-49.083905 139.101081-133.87301 140.565433-62.47182-1.465374-100.400664-23.045879-113.785509-64.702628 0-11.892865 5.922896-18.581194 17.847483-20.080338 4.463662 0 12.620435 5.222955 24.545022 15.616676 23.77038 17.848507 48.314379 26.774807 73.623811 26.774807 47.589878-2.963495 73.631998-32.702819 78.090543-89.24765-2.997264-55.011918-26.76969-84.018555-71.394027-87.015819-16.390295 0-34.236755 3.729951-53.550637 11.153014-7.460925 2.998287-12.652158 4.463662-15.616676 4.463662-11.92561 0-17.84953-5.191232-17.84953-15.616676 0-4.464685 1.465374-15.617699 4.464685-33.466206l22.306029-140.565433c-1.499144-8.927323 4.463662-13.385868 17.853623-13.385868l140.560316 0c13.384845 1.499144 20.813025 8.188496 22.313192 20.080338-1.500167 14.883989-8.928347 22.312168-22.313192 22.312168L574.817186 354.833471 574.817186 354.833471zM574.817186 354.833471" fill="#8a8a8a" p-id="9589"></path></svg>