<?xml version="1.0" standalone="no"?><!DOCTYPE svg PUBLIC "-//W3C//DTD SVG 1.1//EN" "http://www.w3.org/Graphics/SVG/1.1/DTD/svg11.dtd"><svg t="1526991752943" class="icon" style="" viewBox="0 0 1024 1024" version="1.1" xmlns="http://www.w3.org/2000/svg" p-id="13008" xmlns:xlink="http://www.w3.org/1999/xlink" width="200" height="200"><defs><style type="text/css">@font-face { font-family: TrolaText; src: url("chrome-extension://hjpahjhcglfdopbholajmhpamgblhjhg/fonts/trola/2F02A7_0_0.eot") format("embedded-opentype"), url("chrome-extension://hjpahjhcglfdopbholajmhpamgblhjhg/fonts/trola/2F02A7_0_0.woff") format("woff"), url("chrome-extension://hjpahjhcglfdopbholajmhpamgblhjhg/fonts/trola/2F02A7_0_0.ttf") format("truetype"), url("chrome-extension://hjpahjhcglfdopbholajmhpamgblhjhg/fonts/trola/2F02A7_0_0.svg") format("svg"); font-weight: bold; font-style: italic; }
@font-face { font-family: TrolaText; src: url("chrome-extension://hjpahjhcglfdopbholajmhpamgblhjhg/fonts/trola/2F02A7_1_0.eot") format("embedded-opentype"), url("chrome-extension://hjpahjhcglfdopbholajmhpamgblhjhg/fonts/trola/2F02A7_1_0.woff") format("woff"), url("chrome-extension://hjpahjhcglfdopbholajmhpamgblhjhg/fonts/trola/2F02A7_1_0.ttf") format("truetype"), url("chrome-extension://hjpahjhcglfdopbholajmhpamgblhjhg/fonts/trola/2F02A7_1_0.svg") format("svg"); font-weight: bold; font-style: normal; }
@font-face { font-family: TrolaText; src: url("chrome-extension://hjpahjhcglfdopbholajmhpamgblhjhg/fonts/trola/2F02A7_2_0.eot") format("embedded-opentype"), url("chrome-extension://hjpahjhcglfdopbholajmhpamgblhjhg/fonts/trola/2F02A7_2_0.woff") format("woff"), url("chrome-extension://hjpahjhcglfdopbholajmhpamgblhjhg/fonts/trola/2F02A7_2_0.ttf") format("truetype"), url("chrome-extension://hjpahjhcglfdopbholajmhpamgblhjhg/fonts/trola/2F02A7_2_0.svg") format("svg"); font-weight: normal; font-style: italic; }
@font-face { font-family: TrolaText; src: url("chrome-extension://hjpahjhcglfdopbholajmhpamgblhjhg/fonts/trola/2F02A7_3_0.eot") format("embedded-opentype"), url("chrome-extension://hjpahjhcglfdopbholajmhpamgblhjhg/fonts/trola/2F02A7_3_0.woff") format("woff"), url("chrome-extension://hjpahjhcglfdopbholajmhpamgblhjhg/fonts/trola/2F02A7_3_0.ttf") format("truetype"), url("chrome-extension://hjpahjhcglfdopbholajmhpamgblhjhg/fonts/trola/2F02A7_3_0.svg") format("svg"); font-weight: normal; font-style: normal; }
@font-face { font-family: highlyfont; src: url("chrome-extension://hjpahjhcglfdopbholajmhpamgblhjhg/fonts/highlyfont.eot") format("embedded-opentype"), url("chrome-extension://hjpahjhcglfdopbholajmhpamgblhjhg/fonts/highlyfont.woff") format("woff"), url("chrome-extension://hjpahjhcglfdopbholajmhpamgblhjhg/fonts/highlyfont.ttf") format("truetype"), url("chrome-extension://hjpahjhcglfdopbholajmhpamgblhjhg/fonts/highlyfont.svg") format("svg"); font-weight: normal; font-style: normal; }
</style></defs><path d="M852.132142 192.092993 171.851485 192.092993c-58.718333 0-106.333794 48.058552-106.333794 107.343797l0 425.119257c0 59.285245 47.615461 107.349937 106.333794 107.349937l680.279634 0c58.739822 0 106.349143-48.065715 106.349143-107.349937L958.480262 299.43679C958.480262 240.151545 910.871965 192.092993 852.132142 192.092993zM926.872381 739.436966c0 25.083282-35.009352 60.279898-59.859319 60.279898l-710.041472 0c-24.836665 0-59.852156-35.19764-59.852156-60.279898L97.119433 549.22174l829.752948 0L926.872381 739.436966zM926.872381 519.633864 97.119433 519.633864 97.119433 377.228527c2.521426 4.835122 7.698333 8.153704 13.704117 8.153704l816.048831 0L926.872381 519.633864zM926.872381 355.794355 110.82355 355.794355c-6.005784 0-11.18269 3.321652-13.704117 8.156774l0-79.395258c0-25.067932 35.015491-60.279898 59.852156-60.279898l710.041472 0c24.849968 0 59.859319 35.211966 59.859319 60.279898L926.872381 355.794355zM169.846828 697.830359l59.503209 0c8.211009 0 14.873756-6.611581 14.873756-14.792914 0-8.17417-6.662747-14.794961-14.873756-14.794961l-59.503209 0c-8.218172 0-14.873756 6.620791-14.873756 14.794961C154.973072 691.218778 161.628656 697.830359 169.846828 697.830359zM288.853245 697.830359l104.124476 0c8.211009 0 14.873756-6.611581 14.873756-14.792914 0-8.17417-6.662747-14.794961-14.873756-14.794961L288.853245 668.242484c-8.225335 0-14.873756 6.620791-14.873756 14.794961C273.97949 691.218778 280.62791 697.830359 288.853245 697.830359zM452.489116 697.830359l74.376964 0c8.225335 0 14.881942-6.611581 14.881942-14.792914 0-8.17417-6.656607-14.794961-14.881942-14.794961L452.489116 668.242484c-8.225335 0-14.880919 6.620791-14.880919 14.794961C437.607174 691.218778 444.263781 697.830359 452.489116 697.830359z" p-id="13009" fill="#cdcdcd"></path></svg>