<?xml version="1.0" standalone="no"?><!DOCTYPE svg PUBLIC "-//W3C//DTD SVG 1.1//EN" "http://www.w3.org/Graphics/SVG/1.1/DTD/svg11.dtd"><svg t="1526991722589" class="icon" style="" viewBox="0 0 1024 1024" version="1.1" xmlns="http://www.w3.org/2000/svg" p-id="12264" xmlns:xlink="http://www.w3.org/1999/xlink" width="200" height="200"><defs><style type="text/css">@font-face { font-family: TrolaText; src: url("chrome-extension://hjpahjhcglfdopbholajmhpamgblhjhg/fonts/trola/2F02A7_0_0.eot") format("embedded-opentype"), url("chrome-extension://hjpahjhcglfdopbholajmhpamgblhjhg/fonts/trola/2F02A7_0_0.woff") format("woff"), url("chrome-extension://hjpahjhcglfdopbholajmhpamgblhjhg/fonts/trola/2F02A7_0_0.ttf") format("truetype"), url("chrome-extension://hjpahjhcglfdopbholajmhpamgblhjhg/fonts/trola/2F02A7_0_0.svg") format("svg"); font-weight: bold; font-style: italic; }
@font-face { font-family: TrolaText; src: url("chrome-extension://hjpahjhcglfdopbholajmhpamgblhjhg/fonts/trola/2F02A7_1_0.eot") format("embedded-opentype"), url("chrome-extension://hjpahjhcglfdopbholajmhpamgblhjhg/fonts/trola/2F02A7_1_0.woff") format("woff"), url("chrome-extension://hjpahjhcglfdopbholajmhpamgblhjhg/fonts/trola/2F02A7_1_0.ttf") format("truetype"), url("chrome-extension://hjpahjhcglfdopbholajmhpamgblhjhg/fonts/trola/2F02A7_1_0.svg") format("svg"); font-weight: bold; font-style: normal; }
@font-face { font-family: TrolaText; src: url("chrome-extension://hjpahjhcglfdopbholajmhpamgblhjhg/fonts/trola/2F02A7_2_0.eot") format("embedded-opentype"), url("chrome-extension://hjpahjhcglfdopbholajmhpamgblhjhg/fonts/trola/2F02A7_2_0.woff") format("woff"), url("chrome-extension://hjpahjhcglfdopbholajmhpamgblhjhg/fonts/trola/2F02A7_2_0.ttf") format("truetype"), url("chrome-extension://hjpahjhcglfdopbholajmhpamgblhjhg/fonts/trola/2F02A7_2_0.svg") format("svg"); font-weight: normal; font-style: italic; }
@font-face { font-family: TrolaText; src: url("chrome-extension://hjpahjhcglfdopbholajmhpamgblhjhg/fonts/trola/2F02A7_3_0.eot") format("embedded-opentype"), url("chrome-extension://hjpahjhcglfdopbholajmhpamgblhjhg/fonts/trola/2F02A7_3_0.woff") format("woff"), url("chrome-extension://hjpahjhcglfdopbholajmhpamgblhjhg/fonts/trola/2F02A7_3_0.ttf") format("truetype"), url("chrome-extension://hjpahjhcglfdopbholajmhpamgblhjhg/fonts/trola/2F02A7_3_0.svg") format("svg"); font-weight: normal; font-style: normal; }
@font-face { font-family: highlyfont; src: url("chrome-extension://hjpahjhcglfdopbholajmhpamgblhjhg/fonts/highlyfont.eot") format("embedded-opentype"), url("chrome-extension://hjpahjhcglfdopbholajmhpamgblhjhg/fonts/highlyfont.woff") format("woff"), url("chrome-extension://hjpahjhcglfdopbholajmhpamgblhjhg/fonts/highlyfont.ttf") format("truetype"), url("chrome-extension://hjpahjhcglfdopbholajmhpamgblhjhg/fonts/highlyfont.svg") format("svg"); font-weight: normal; font-style: normal; }
</style></defs><path d="M157.267134 481.045255c14.473928 0 27.123411-10.46015 29.434375-25.177337C212.122105 295.316783 348.712199 178.795581 511.574296 178.795581c135.495427 0 255.543889 81.370234 305.655303 207.256919 6.081482 15.325336 23.474522 22.744744 38.799857 16.663262 11.919705-4.743556 18.974225-16.176743 18.852595-28.218078 0 0 0-0.12163 0-0.12163L874.882053 186.458249c0-16.541632-13.379261-29.920893-29.920893-29.920893-16.541632 0-29.920893 13.379261-29.920893 29.920893l0 78.572752c-23.596152-29.434375-51.449341-55.463119-82.951419-77.234826-65.071861-44.88134-141.33365-68.720751-220.63618-68.720751-93.16831 0-183.174249 33.448153-253.597814 94.141347C188.282694 273.301817 142.063428 356.131607 127.71113 446.502435c-2.554223 16.298373 8.514075 31.623708 24.812448 34.177931C154.104763 480.923625 155.685948 481.045255 157.267134 481.045255L157.267134 481.045255zM157.267134 481.045255" p-id="12265" fill="#cdcdcd"></path><path d="M871.476422 543.927782c-16.298373-2.554223-31.623708 8.514075-34.177931 24.812448-25.420596 160.551134-162.01069 277.072336-324.872788 277.072336-133.914242 0-252.746407-79.42416-303.952488-202.878252-2.067704-14.473928-14.473928-25.542226-29.556004-25.542226-16.541632 0-29.920893 13.379261-29.920893 29.920893l0 1.702815c0 0.12163 0 0.243259 0 0.486519l0 185.850101c0 16.541632 13.379261 29.920893 29.920893 29.920893 16.541632 0 29.920893-13.379261 29.920893-29.920893l0-75.532011c23.596152 29.434375 51.449341 55.463119 82.951419 77.234826 65.071861 44.88134 141.33365 68.720751 220.63618 68.720751 93.16831 0 183.174249-33.448153 253.597814-94.141347 69.693788-60.085046 115.913054-142.914835 130.265352-233.285663C898.843093 561.807341 887.774795 546.603635 871.476422 543.927782L871.476422 543.927782zM871.476422 543.927782" p-id="12266" fill="#cdcdcd"></path></svg>