<?xml version="1.0" standalone="no"?><!DOCTYPE svg PUBLIC "-//W3C//DTD SVG 1.1//EN" "http://www.w3.org/Graphics/SVG/1.1/DTD/svg11.dtd"><svg t="1527476318834" class="icon" style="" viewBox="0 0 1024 1024" version="1.1" xmlns="http://www.w3.org/2000/svg" p-id="3516" xmlns:xlink="http://www.w3.org/1999/xlink" width="200" height="200"><defs><style type="text/css">@font-face { font-family: TrolaText; src: url("chrome-extension://hjpahjhcglfdopbholajmhpamgblhjhg/fonts/trola/2F02A7_0_0.eot") format("embedded-opentype"), url("chrome-extension://hjpahjhcglfdopbholajmhpamgblhjhg/fonts/trola/2F02A7_0_0.woff") format("woff"), url("chrome-extension://hjpahjhcglfdopbholajmhpamgblhjhg/fonts/trola/2F02A7_0_0.ttf") format("truetype"), url("chrome-extension://hjpahjhcglfdopbholajmhpamgblhjhg/fonts/trola/2F02A7_0_0.svg") format("svg"); font-weight: bold; font-style: italic; }
@font-face { font-family: TrolaText; src: url("chrome-extension://hjpahjhcglfdopbholajmhpamgblhjhg/fonts/trola/2F02A7_1_0.eot") format("embedded-opentype"), url("chrome-extension://hjpahjhcglfdopbholajmhpamgblhjhg/fonts/trola/2F02A7_1_0.woff") format("woff"), url("chrome-extension://hjpahjhcglfdopbholajmhpamgblhjhg/fonts/trola/2F02A7_1_0.ttf") format("truetype"), url("chrome-extension://hjpahjhcglfdopbholajmhpamgblhjhg/fonts/trola/2F02A7_1_0.svg") format("svg"); font-weight: bold; font-style: normal; }
@font-face { font-family: TrolaText; src: url("chrome-extension://hjpahjhcglfdopbholajmhpamgblhjhg/fonts/trola/2F02A7_2_0.eot") format("embedded-opentype"), url("chrome-extension://hjpahjhcglfdopbholajmhpamgblhjhg/fonts/trola/2F02A7_2_0.woff") format("woff"), url("chrome-extension://hjpahjhcglfdopbholajmhpamgblhjhg/fonts/trola/2F02A7_2_0.ttf") format("truetype"), url("chrome-extension://hjpahjhcglfdopbholajmhpamgblhjhg/fonts/trola/2F02A7_2_0.svg") format("svg"); font-weight: normal; font-style: italic; }
@font-face { font-family: TrolaText; src: url("chrome-extension://hjpahjhcglfdopbholajmhpamgblhjhg/fonts/trola/2F02A7_3_0.eot") format("embedded-opentype"), url("chrome-extension://hjpahjhcglfdopbholajmhpamgblhjhg/fonts/trola/2F02A7_3_0.woff") format("woff"), url("chrome-extension://hjpahjhcglfdopbholajmhpamgblhjhg/fonts/trola/2F02A7_3_0.ttf") format("truetype"), url("chrome-extension://hjpahjhcglfdopbholajmhpamgblhjhg/fonts/trola/2F02A7_3_0.svg") format("svg"); font-weight: normal; font-style: normal; }
@font-face { font-family: highlyfont; src: url("chrome-extension://hjpahjhcglfdopbholajmhpamgblhjhg/fonts/highlyfont.eot") format("embedded-opentype"), url("chrome-extension://hjpahjhcglfdopbholajmhpamgblhjhg/fonts/highlyfont.woff") format("woff"), url("chrome-extension://hjpahjhcglfdopbholajmhpamgblhjhg/fonts/highlyfont.ttf") format("truetype"), url("chrome-extension://hjpahjhcglfdopbholajmhpamgblhjhg/fonts/highlyfont.svg") format("svg"); font-weight: normal; font-style: normal; }
</style></defs><path d="M256 384m-64 0a1 1 0 1 0 128 0 1 1 0 1 0-128 0Z" p-id="3517" fill="#ff6700"></path><path d="M512 384m-64 0a1 1 0 1 0 128 0 1 1 0 1 0-128 0Z" p-id="3518" fill="#ff6700"></path><path d="M704.256 0 319.744 0C142.976 0 0 143.232 0 320.704l0 142.592c0 162.304 133.76 289.408 256 304.768L256 960l320-191.936 128.256 0c176.768 0 319.744-127.296 319.744-304.768L1024 320.704C1024 143.616 880.896 0 704.256 0zM960 448c0 142.144-114.304 256-255.744 256L576 704l-256.256 150.016L319.744 704 288 704C160.704 688.192 64 577.92 64 448L64 320.704C64 178.56 178.304 64 319.744 64l384.576 0C845.504 64 960 178.88 960 320.704L960 448z" p-id="3519" fill="#ff6700"></path><path d="M768 384m-64 0a1 1 0 1 0 128 0 1 1 0 1 0-128 0Z" p-id="3520" fill="#ff6700"></path></svg>