<?xml version="1.0" standalone="no"?><!DOCTYPE svg PUBLIC "-//W3C//DTD SVG 1.1//EN" "http://www.w3.org/Graphics/SVG/1.1/DTD/svg11.dtd"><svg t="1526991700256" class="icon" style="" viewBox="0 0 1024 1024" version="1.1" xmlns="http://www.w3.org/2000/svg" p-id="11527" xmlns:xlink="http://www.w3.org/1999/xlink" width="200" height="200"><defs><style type="text/css">@font-face { font-family: TrolaText; src: url("chrome-extension://hjpahjhcglfdopbholajmhpamgblhjhg/fonts/trola/2F02A7_0_0.eot") format("embedded-opentype"), url("chrome-extension://hjpahjhcglfdopbholajmhpamgblhjhg/fonts/trola/2F02A7_0_0.woff") format("woff"), url("chrome-extension://hjpahjhcglfdopbholajmhpamgblhjhg/fonts/trola/2F02A7_0_0.ttf") format("truetype"), url("chrome-extension://hjpahjhcglfdopbholajmhpamgblhjhg/fonts/trola/2F02A7_0_0.svg") format("svg"); font-weight: bold; font-style: italic; }
@font-face { font-family: TrolaText; src: url("chrome-extension://hjpahjhcglfdopbholajmhpamgblhjhg/fonts/trola/2F02A7_1_0.eot") format("embedded-opentype"), url("chrome-extension://hjpahjhcglfdopbholajmhpamgblhjhg/fonts/trola/2F02A7_1_0.woff") format("woff"), url("chrome-extension://hjpahjhcglfdopbholajmhpamgblhjhg/fonts/trola/2F02A7_1_0.ttf") format("truetype"), url("chrome-extension://hjpahjhcglfdopbholajmhpamgblhjhg/fonts/trola/2F02A7_1_0.svg") format("svg"); font-weight: bold; font-style: normal; }
@font-face { font-family: TrolaText; src: url("chrome-extension://hjpahjhcglfdopbholajmhpamgblhjhg/fonts/trola/2F02A7_2_0.eot") format("embedded-opentype"), url("chrome-extension://hjpahjhcglfdopbholajmhpamgblhjhg/fonts/trola/2F02A7_2_0.woff") format("woff"), url("chrome-extension://hjpahjhcglfdopbholajmhpamgblhjhg/fonts/trola/2F02A7_2_0.ttf") format("truetype"), url("chrome-extension://hjpahjhcglfdopbholajmhpamgblhjhg/fonts/trola/2F02A7_2_0.svg") format("svg"); font-weight: normal; font-style: italic; }
@font-face { font-family: TrolaText; src: url("chrome-extension://hjpahjhcglfdopbholajmhpamgblhjhg/fonts/trola/2F02A7_3_0.eot") format("embedded-opentype"), url("chrome-extension://hjpahjhcglfdopbholajmhpamgblhjhg/fonts/trola/2F02A7_3_0.woff") format("woff"), url("chrome-extension://hjpahjhcglfdopbholajmhpamgblhjhg/fonts/trola/2F02A7_3_0.ttf") format("truetype"), url("chrome-extension://hjpahjhcglfdopbholajmhpamgblhjhg/fonts/trola/2F02A7_3_0.svg") format("svg"); font-weight: normal; font-style: normal; }
@font-face { font-family: highlyfont; src: url("chrome-extension://hjpahjhcglfdopbholajmhpamgblhjhg/fonts/highlyfont.eot") format("embedded-opentype"), url("chrome-extension://hjpahjhcglfdopbholajmhpamgblhjhg/fonts/highlyfont.woff") format("woff"), url("chrome-extension://hjpahjhcglfdopbholajmhpamgblhjhg/fonts/highlyfont.ttf") format("truetype"), url("chrome-extension://hjpahjhcglfdopbholajmhpamgblhjhg/fonts/highlyfont.svg") format("svg"); font-weight: normal; font-style: normal; }
</style></defs><path d="M704.158485 742.9454136666666l-1.2789769243681803e-13-251.345492c-1.4210854715202004e-14-35.64789499999999-29.001521000000018-64.64941599999996-64.64941600000003-64.64941599999996L388.16357700000003 426.95050666666685c-35.64789499999999 1.4210854715202004e-14-64.64941599999996 29.001521000000018-64.64941599999996 64.64941600000003L323.5141610000002 742.9454136666667c1.4210854715202004e-14 35.64789499999999 29.001521000000018 64.64941599999996 64.64941600000003 64.64941599999996l251.345492-1.2789769243681803e-13C675.1569640000001 807.5948296666666 704.1584850000002 778.5933086666665 704.158485 742.9454136666666zM388.16357700000015 762.5693566666667c-10.82044 5.329070518200751e-15-19.623943000000004-8.803502999999992-19.623943000000008-19.62394299999999l-1.2789769243681803e-13-251.345492c-5.329070518200751e-15-10.82044 8.803502999999992-19.623943000000004 19.62394299999999-19.623943000000008l251.345492-1.2789769243681803e-13c10.82044-5.329070518200751e-15 19.623943000000004 8.803502999999992 19.623943000000008 19.62394299999999L659.133012 742.9454136666666c5.329070518200751e-15 10.82044-8.803502999999992 19.623943000000004-19.62394299999999 19.623943000000008L388.16357700000015 762.5693566666667z" p-id="11528" fill="#cdcdcd"></path><path d="M635.4966850000001 575.5048906666666c-7.105427357601002e-15-12.433169999999999-10.07956600000001-22.51273599999999-22.512736000000007-22.51273599999999l-16.981766 7.105427357601002e-15-7.105427357601002e-15-25.069978999999996c-7.105427357601002e-15-12.433169999999999-10.07956600000001-22.51273599999999-22.512736000000007-22.51273599999999s-22.51273599999999 10.07956600000001-22.51273599999999 22.512736000000007l7.105427357601002e-15 25.069978999999996L414.6897200000001 552.9921536666666c-12.433169999999999 7.105427357601002e-15-22.51273599999999 10.07956600000001-22.51273599999999 22.512736000000007s10.07956600000001 22.51273599999999 22.512736000000007 22.51273599999999l198.293205-1.1368683772161603e-13C625.417119 598.0176266666666 635.4966850000001 587.9380606666666 635.4966850000001 575.5048906666666z" p-id="11529" fill="#cdcdcd"></path><path d="M491.8470080000001 708.1192336666667l-7.105427357601002e-15-25.069978999999996 121.135918-5.684341886080802e-14c12.433169999999999-7.105427357601002e-15 22.51273599999999-10.07956600000001 22.51273599999999-22.512736000000007s-10.07956600000001-22.51273599999999-22.512736000000007-22.51273599999999L414.68972000000014 638.0237826666666c-12.433169999999999 7.105427357601002e-15-22.51273599999999 10.07956600000001-22.51273599999999 22.512736000000007s10.07956600000001 22.51273599999999 22.512736000000007 22.51273599999999l32.131815-1.4210854715202004e-14 7.105427357601002e-15 25.069978999999996c7.105427357601002e-15 12.433169999999999 10.07956600000001 22.51273599999999 22.512736000000007 22.51273599999999S491.8470080000001 720.5524036666667 491.8470080000001 708.1192336666667z" p-id="11530" fill="#cdcdcd"></path><path d="M377.788276 58.60223066666667l-168.8455229999999 179.07858500000006c-3.938705999999997 4.177136000000003-6.132673999999994 9.700943000000004-6.132673999999993 15.443737000000002L202.81007900000014 802.3841546666667c1.5987211554602254e-14 28.843931999999995 9.255805000000024 56.16416099999999 26.76662000000003 79.00742499999998 16.939811000000002 22.097273999999995 40.95066700000002 38.43845099999997 67.60984100000002 46.01500999999997 11.960403 3.3983999999999925 24.409945999999998-3.5416630000000104 27.80936899999999-15.501042000000016 3.3994229999999925-11.960403-3.5406390000000076-24.409945999999994-15.501042000000016-27.80936899999999-36.303834-10.316972999999978-61.65829200000003-43.917231999999956-61.658292000000024-81.71202299999999l-2.8421709430404007e-13-540.319999L403.8836069999998 96.55870366666663l291.022143-1.1368683772161603e-13c46.83365500000001-2.1316282072803006e-14 84.934414 38.10075999999995 84.93441400000003 84.93441399999996L779.840164 802.3841546666666c2.1316282072803006e-14 46.83365500000001-38.10075999999995 84.934414-84.93441399999996 84.93441400000003L376.21340700000025 887.3185686666667c-12.433169999999999 7.105427357601002e-15-22.51273599999999 10.07956600000001-22.51273599999999 22.512736000000007s10.07956600000001 22.51273599999999 22.512736000000007 22.51273599999999l318.691319-1.1368683772161603e-13c71.660086-2.842170943040401e-14 129.95988699999998-58.29980100000004 129.95988699999992-129.95988700000007l-2.8421709430404007e-13-620.891036c-2.842170943040401e-14-71.660086-58.29980100000004-129.95988699999998-129.95988700000007-129.95988699999992L394.16833799999984 51.53323066666694C387.96710200000007 51.53323066666671 382.04113599999977 54.090473666666796 377.788276 58.60223066666667z" p-id="11531" fill="#cdcdcd"></path></svg>